<?xml version="1.0" encoding="utf-8"?>
<!-- Generator: Adobe Illustrator 26.0.1, SVG Export Plug-In . SVG Version: 6.00 Build 0)  -->
<svg version="1.1" id="Layer_1" xmlns="http://www.w3.org/2000/svg" xmlns:xlink="http://www.w3.org/1999/xlink" x="0px" y="0px"
	 viewBox="0 0 1027.6 227.6" style="enable-background:new 0 0 1027.6 227.6;" xml:space="preserve">
<style type="text/css">
	.st0{fill:#B7FB00;}
	.st1{fill:#FFFFFF;}
</style>
<g>
	<path class="st0" d="M80.8,0.9c-16.9,2.5-32,16-40.4,36.2c-1.7,4-4.5,12.5-6.2,18.6C30.5,69.4,29,72.5,21.7,80.8
		C7.1,97.5,0.1,116.1,0,138.2c-0.1,53.4,48,95.1,102.4,88.7c22.9-2.8,41.7-11.9,57-27.7c15.5-16.2,23.2-33.7,24.6-55.6
		c1.3-23-5-42.1-20.2-61c-8.9-11-10.5-14.1-13.9-27.2c-5.5-20.6-12.4-33.6-22.5-42.7C115.2,2,100.2-2,80.8,0.9z"/>
	<path class="st1" d="M330.6,96c5.5,1.6,11.9,8.2,14,14.3c3.3,9.9,1.6,22.9-4,30.3c-5.2,6.9-17.4,10-27.7,7.1
		c-5.3-1.5-12.2-8.1-14.4-13.8c-2.2-5.6-2.4-17.8-0.4-23.5c1.8-5.1,7.6-11.5,12.6-13.7C315.4,94.5,324.6,94.2,330.6,96z M320.1,67.3
		c-7.7,1.5-13.6,4.4-19.6,9.2l-4.3,3.4v-5v-5.1h-15h-15v72v72h15h15v-25v-25.1l4.3,3.4c8.5,7,16.8,9.8,28.9,9.8
		c23.8,0,42.7-16.5,47.3-41.3c6.5-33.7-10.1-62.7-39-68.2C328.8,65.6,328.8,65.6,320.1,67.3z"/>
	<path class="st1" d="M444.4,91.9c6.8,1.8,13,9,14,16l0.3,2.5l-22.3,0.3l-22.4,0.2l0.8-2.2C419,94.7,430.8,88,444.4,91.9z
		 M427.2,67.3c-20.6,3.8-36.5,18.7-41.6,38.7c-2,7.7-2.3,22.3-0.5,29.8c3.4,14.6,14.1,28.5,26.7,34.9c21.3,10.8,47.6,7.4,64.2-8.2
		c5.2-4.9,12.2-14.4,12.2-16.6c0-0.7-5.8-1-17.1-1c-16.1,0-17.2,0.1-20.2,2.3c-2.5,1.7-4.8,2.3-11.1,2.6c-7.1,0.3-8.6,0-13.5-2.6
		c-3.9-2-6.5-4.2-8.8-7.6c-6.2-9.2-8.7-8.7,35.2-8.7h38.6l-0.1-6.3c0-10.2-2.6-21.5-6.5-29.5C474.6,74.6,450.5,63,427.2,67.3z"/>
	<path class="st1" d="M561.2,96c5.1,1.5,10.6,6.1,13.1,11.2c1.6,3,2.3,6.5,2.6,13.1c0.4,7.8,0.1,9.8-1.8,14.3
		c-5.1,12-18.7,17.2-32.3,12.6c-5.7-1.9-12.1-8.9-13.8-14.8c-1.6-5.7-1.6-15.1,0-20.9c1.7-5.9,7.3-12.5,12.6-14.9
		C546.3,94.6,555.5,94.2,561.2,96z M535.2,67.4c-9.5,2.1-16.8,6-23.5,12.9C501,91,496.2,104,496.2,121.8
		c0.1,24.2,10.1,41.9,28.7,50.8c7.7,3.7,8,3.8,19.8,3.8c14.1-0.1,20.4-2,27.9-8.7c2.6-2.2,4.7-3.6,4.7-3.2c0.1,0.5,0.1,2.8,0,5.1
		l-0.2,4.2h15.5h15.6v-52v-52h-15.6H577l0.2,4.3c0.1,2.4,0.1,4.7,0,5.1c0,0.5-1.9-0.9-4.2-2.9c-5-4.6-10.7-7.1-19.6-9
		C545.3,65.6,543.5,65.6,535.2,67.4z"/>
	<path class="st1" d="M747.2,95.9c2,0.5,5.4,2.5,7.6,4.4c11.5,9.9,11.7,33.1,0.2,43c-9.9,8.5-26.5,7.4-34.9-2.1
		c-4.6-5.2-6.3-10.2-6.4-18.8c-0.2-11.9,5.1-21.7,13.8-25.6C732.2,94.6,741.5,94.2,747.2,95.9z M737,67.3c-7.5,1.5-15,5-19.5,9.3
		c-1.8,1.6-3.4,2.8-3.8,2.4c-0.3-0.3-0.5-2.5-0.5-4.9v-4.4h-15h-15v72v72h15h15v-24.3c0-13.4,0.2-24.6,0.6-25
		c0.4-0.4,2.7,1.1,5.1,3.2c6,5.4,13.8,8.2,24.1,8.9c10.2,0.6,17.5-1,25.6-5.1c24.8-13,34.1-49.8,19.9-78.7
		c-6.9-13.9-20-23.5-35.3-26C745.5,65.7,745.5,65.7,737,67.3z"/>
	<path class="st1" d="M866.9,97.3c9.4,4.4,14.1,14.1,13.1,27.5c-1.2,16.2-11.5,25-27.6,23.7c-12.9-1-21-10-22-24.1
		c-0.5-8.4,0.7-13.4,4.7-19.7C841,95.3,855.4,91.9,866.9,97.3z M845,67.4c-22.4,4.1-36.7,16-43.4,36c-2.1,6.4-2.6,9.7-2.7,18
		c0,16.4,5,29.5,15.1,39.4c22.1,21.6,61.2,21.4,82.6-0.4c10.1-10.3,14.6-22.2,14.6-38.7c0-16.9-4.5-28.5-15-39
		C883.2,70,863.5,64,845,67.4z"/>
	<path class="st1" d="M980.3,96c5,1.5,10.5,6.1,13.1,11.2c3,5.8,3.7,19.9,1.2,26.3c-4,10.5-12.9,15.9-25,15.1
		c-3.8-0.3-8.4-1.2-10-2.1c-13.5-7-17.7-27.6-8.6-42C956.4,96.2,969,92.5,980.3,96z M970.1,67.3c-7.3,1.5-13.5,4.3-19,8.7
		c-2,1.5-3.9,2.9-4.3,2.9c-0.3,0-0.6-2-0.6-4.5v-4.6h-15h-15v72v72h15h15v-24.3c0-13.4,0.3-24.6,0.6-25c0.4-0.3,2.1,0.8,3.8,2.4
		c1.7,1.6,5.9,4.4,9.4,6.1c12,6,31.5,4.9,43.5-2.5c7-4.3,14.7-12.8,18.1-20.2c4.7-9.8,6-16.4,6-28.6c0-12.2-1.3-18.7-6-28.6
		c-6.4-13.4-19-23-34-25.9C978.8,65.6,978.8,65.6,970.1,67.3z"/>
	<path class="st1" d="M671,69.9c-6.9,1.1-15,5.1-20.2,10l-4.6,4.2v-7.1v-7.1h-15.5h-15.4v52v52h15.4h15.5v-30.5
		c0-33.5,0.2-35,5.9-39.7c4.5-3.8,10.2-5.1,18.9-4.4l7.3,0.6L678,84.6c-0.2-9-0.7-15.2-1.3-15.3C676.1,69.2,673.5,69.4,671,69.9z"/>
</g>
<g>
</g>
<g>
</g>
<g>
</g>
<g>
</g>
<g>
</g>
<g>
</g>
</svg>
